<svg width="31" height="30" viewBox="0 0 31 30" fill="none" xmlns="http://www.w3.org/2000/svg">
<path d="M30.9355 15.3375C30.9355 14.35 30.8433 13.4125 30.6853 12.5H15.8036V18.1375H24.3243C23.9424 19.9875 22.823 21.55 21.1636 22.6125V26.3625H26.2471C29.2234 23.75 30.9355 19.9 30.9355 15.3375Z" fill="#4285F4"/>
<path d="M15.8036 30C20.0705 30 23.6395 28.65 26.2471 26.3625L21.1636 22.6125C19.7413 23.5125 17.9371 24.0625 15.8036 24.0625C11.6815 24.0625 8.19152 21.425 6.9404 17.8625H1.69888V21.725C4.2933 26.625 9.62701 30 15.8036 30Z" fill="#34A853"/>
<path d="M6.9404 17.8624C6.61116 16.9624 6.43995 15.9999 6.43995 14.9999C6.43995 13.9999 6.62433 13.0374 6.9404 12.1374V8.2749H1.69888C0.618972 10.2999 0 12.5749 0 14.9999C0 17.4249 0.618972 19.6999 1.69888 21.7249L6.9404 17.8624Z" fill="#FBBC05"/>
<path d="M15.8036 5.9375C18.1346 5.9375 20.2154 6.7 21.8616 8.1875L26.3656 3.9125C23.6395 1.4875 20.0705 0 15.8036 0C9.62701 0 4.2933 3.375 1.69888 8.275L6.9404 12.1375C8.19152 8.575 11.6815 5.9375 15.8036 5.9375Z" fill="#EA4335"/>
</svg>
